<svg width="36" height="40" viewBox="0 0 36 40" fill="none" xmlns="http://www.w3.org/2000/svg">
<path d="M2.99998 0.999878H23.8281L34.4999 11.6303V37.4999C34.4999 38.3285 33.828 38.9999 32.9999 38.9999H2.99998C2.17192 38.9999 1.5 38.3285 1.5 37.4999V2.49985C1.5 1.67127 2.17202 0.999878 2.99998 0.999878Z" stroke="#19754C" stroke-width="2"/>
<path d="M35.464 11.2498H26.7502C25.3702 11.2498 24.2502 10.1298 24.2502 8.7498V0.0247803L35.464 11.2498Z" fill="#19754C"/>
<path d="M20.0395 21L25 29H21.9211L18.5 22.9556L15.0789 29H12L16.9605 21L12 13H15.0789L18.5 19.0444L21.9211 13H25L20.0395 21Z" fill="#19754C"/>
</svg>
