<svg width="40" height="40" viewBox="0 0 40 40" fill="none" xmlns="http://www.w3.org/2000/svg">
<mask id="path-1-inside-1" fill="white">
<path fill-rule="evenodd" clip-rule="evenodd" d="M20 40C31.0457 40 40 31.0457 40 20C40 8.9543 31.0457 0 20 0C8.9543 0 0 8.9543 0 20C0 31.0457 8.9543 40 20 40ZM21.8718 22.4526H24.6261L24.9906 18.7684H21.8721V16.5981C21.8721 15.784 22.3894 15.5929 22.7573 15.5929H25V12.0134L21.909 12C18.4784 12 17.6989 14.6722 17.6989 16.3786V18.7649H15V22.4526H17.6989V28H21.8718V22.4526Z"/>
</mask>
<path fill-rule="evenodd" clip-rule="evenodd" d="M20 40C31.0457 40 40 31.0457 40 20C40 8.9543 31.0457 0 20 0C8.9543 0 0 8.9543 0 20C0 31.0457 8.9543 40 20 40ZM21.8718 22.4526H24.6261L24.9906 18.7684H21.8721V16.5981C21.8721 15.784 22.3894 15.5929 22.7573 15.5929H25V12.0134L21.909 12C18.4784 12 17.6989 14.6722 17.6989 16.3786V18.7649H15V22.4526H17.6989V28H21.8718V22.4526Z" fill="white"/>
<path d="M24.6261 22.4526V24.4526H26.4379L26.6164 22.6495L24.6261 22.4526ZM21.8718 22.4526V20.4526H19.8718V22.4526H21.8718ZM24.9906 18.7684L26.9809 18.9653L27.1983 16.7684H24.9906V18.7684ZM21.8721 18.7684H19.8721V20.7684H21.8721V18.7684ZM25 15.5929V17.5929H27V15.5929H25ZM25 12.0134H27V10.0221L25.0087 10.0135L25 12.0134ZM21.909 12L21.9177 10H21.909V12ZM17.6989 18.7649V20.7649H19.6989V18.7649H17.6989ZM15 18.7649V16.7649H13V18.7649H15ZM15 22.4526H13V24.4526H15V22.4526ZM17.6989 22.4526H19.6989V20.4526H17.6989V22.4526ZM17.6989 28H15.6989V30H17.6989V28ZM21.8718 28V30H23.8718V28H21.8718ZM38 20C38 29.9411 29.9411 38 20 38V42C32.1503 42 42 32.1503 42 20H38ZM20 2C29.9411 2 38 10.0589 38 20H42C42 7.84974 32.1503 -2 20 -2V2ZM2 20C2 10.0589 10.0589 2 20 2V-2C7.84974 -2 -2 7.84974 -2 20H2ZM20 38C10.0589 38 2 29.9411 2 20H-2C-2 32.1503 7.84974 42 20 42V38ZM24.6261 20.4526H21.8718V24.4526H24.6261V20.4526ZM23.0004 18.5714L22.6358 22.2556L26.6164 22.6495L26.9809 18.9653L23.0004 18.5714ZM21.8721 20.7684H24.9906V16.7684H21.8721V20.7684ZM19.8721 16.5981V18.7684H23.8721V16.5981H19.8721ZM22.7573 13.5929C22.2702 13.5929 21.5287 13.7142 20.8788 14.2686C20.1656 14.877 19.8721 15.739 19.8721 16.5981H23.8721C23.8721 16.6049 23.871 16.7055 23.8094 16.8559C23.7443 17.0146 23.6325 17.1772 23.4747 17.3118C23.1754 17.5672 22.8765 17.5929 22.7573 17.5929V13.5929ZM25 13.5929H22.7573V17.5929H25V13.5929ZM23 12.0134V15.5929H27V12.0134H23ZM21.9003 14L24.9913 14.0134L25.0087 10.0135L21.9177 10L21.9003 14ZM19.6989 16.3786C19.6989 15.7715 19.8468 15.1332 20.1501 14.7047C20.3738 14.3885 20.7981 14 21.909 14V10C19.5893 10 17.9086 10.9476 16.8849 12.3941C15.9408 13.7283 15.6989 15.2792 15.6989 16.3786H19.6989ZM19.6989 18.7649V16.3786H15.6989V18.7649H19.6989ZM15 20.7649H17.6989V16.7649H15V20.7649ZM17 22.4526V18.7649H13V22.4526H17ZM17.6989 20.4526H15V24.4526H17.6989V20.4526ZM19.6989 28V22.4526H15.6989V28H19.6989ZM21.8718 26H17.6989V30H21.8718V26ZM19.8718 22.4526V28H23.8718V22.4526H19.8718Z" fill="white" mask="url(#path-1-inside-1)"/>
</svg>
