<svg width="32" height="32" viewBox="0 0 32 32" fill="none" xmlns="http://www.w3.org/2000/svg">
<path opacity="0.3" fill-rule="evenodd" clip-rule="evenodd" d="M16 4.65455C9.73408 4.65455 4.65455 9.73408 4.65455 16C4.65455 22.2659 9.73408 27.3455 16 27.3455C22.2659 27.3455 27.3455 22.2659 27.3455 16C27.3455 9.73408 22.2659 4.65455 16 4.65455ZM0 16C0 7.16344 7.16344 0 16 0C24.8366 0 32 7.16344 32 16C32 24.8366 24.8366 32 16 32C7.16344 32 0 24.8366 0 16Z" fill="#D1D1D1"/>
<path fill-rule="evenodd" clip-rule="evenodd" d="M16.2909 4.65455C9.86432 4.65455 4.65455 9.86432 4.65455 16.2909C4.65455 17.5762 3.61259 18.6182 2.32727 18.6182C1.04196 18.6182 0 17.5762 0 16.2909C0 7.29369 7.29369 0 16.2909 0C17.5762 0 18.6182 1.04196 18.6182 2.32727C18.6182 3.61259 17.5762 4.65455 16.2909 4.65455Z" fill="#2F2F2F"/>
</svg>
