<svg width="36" height="40" viewBox="0 0 36 40" fill="none" xmlns="http://www.w3.org/2000/svg">
<path d="M2.99998 0.999878H23.8281L34.4999 11.6303V37.4999C34.4999 38.3285 33.828 38.9999 32.9999 38.9999H2.99998C2.17192 38.9999 1.5 38.3285 1.5 37.4999V2.49985C1.5 1.67127 2.17202 0.999878 2.99998 0.999878Z" stroke="#6B5B97" stroke-width="2"/>
<path d="M35.464 11.2498H26.7502C25.3702 11.2498 24.2502 10.1298 24.2502 8.7498V0.0247803L35.464 11.2498Z" fill="#6B5B97"/>
<path d="M25.3 18.4999L18.5 22.8749L11.7 18.4999V16.7499L18.5 21.1249L25.3 16.7499V18.4999ZM25.3 14.9999H11.7C10.7565 14.9999 10 15.7786 10 16.7499V27.2499C10 27.714 10.1791 28.1591 10.4979 28.4873C10.8167 28.8155 11.2491 28.9999 11.7 28.9999H25.3C25.7509 28.9999 26.1833 28.8155 26.5021 28.4873C26.8209 28.1591 27 27.714 27 27.2499V16.7499C27 15.7786 26.235 14.9999 25.3 14.9999Z" fill="#6B5B97"/>
</svg>
