<svg width="36" height="40" viewBox="0 0 36 40" fill="none" xmlns="http://www.w3.org/2000/svg">
<path d="M2.99998 0.999878H23.8281L34.4999 11.6303V37.4999C34.4999 38.3285 33.828 38.9999 32.9999 38.9999H2.99998C2.17192 38.9999 1.5 38.3285 1.5 37.4999V2.49985C1.5 1.67127 2.17202 0.999878 2.99998 0.999878Z" stroke="#3C97EA" stroke-width="2"/>
<path d="M35.464 11.2498H26.7502C25.3702 11.2498 24.2502 10.1298 24.2502 8.7498V0.0247803L35.464 11.2498Z" fill="#3C97EA"/>
<path d="M26.1224 18.9535C26.5412 18.9535 26.7462 18.5885 26.7462 18.2348C26.7462 17.8685 26.5324 17.5148 26.1224 17.5148H23.7375C23.2712 17.5148 23.0112 17.901 23.0112 18.3273V24.1885C23.0112 24.711 23.3087 25.001 23.7112 25.001C24.1112 25.001 24.41 24.711 24.41 24.1885V22.5798H25.8525C26.3 22.5798 26.5238 22.2135 26.5238 21.8498C26.5238 21.4936 26.3 21.1397 25.8525 21.1397H24.41V18.9535H26.1224ZM18.0612 17.5148H16.3162C15.8424 17.5148 15.5061 17.8398 15.5061 18.3222V24.1935C15.5061 24.7922 15.9898 24.9798 16.3361 24.9798H18.1674C20.3348 24.9798 21.7661 23.5536 21.7661 21.3522C21.7649 19.0248 20.4175 17.5148 18.0612 17.5148ZM18.145 23.5324H17.0812V18.9623H18.04C19.4913 18.9623 20.1225 19.9361 20.1225 21.2798C20.1225 22.5374 19.5024 23.5324 18.145 23.5324ZM11.7525 17.5148H10.0237C9.53497 17.5148 9.26245 17.8372 9.26245 18.3273V24.1885C9.26245 24.711 9.57493 25.001 9.99489 25.001C10.4149 25.001 10.7273 24.711 10.7273 24.1885V22.4772H11.8111C13.1485 22.4772 14.2523 21.5297 14.2523 20.006C14.2524 18.5148 13.1875 17.5148 11.7525 17.5148ZM11.7238 21.1024H10.7275V18.8911H11.7238C12.3388 18.8911 12.73 19.371 12.73 19.9973C12.7287 20.6224 12.3388 21.1024 11.7238 21.1024Z" fill="#3C97EA"/>
</svg>
