<svg width="36" height="40" viewBox="0 0 36 40" fill="none" xmlns="http://www.w3.org/2000/svg">
<path d="M2.99998 0.999878H23.8281L34.4999 11.6303V37.4999C34.4999 38.3285 33.828 38.9999 32.9999 38.9999H2.99998C2.17192 38.9999 1.5 38.3285 1.5 37.4999V2.49985C1.5 1.67127 2.17202 0.999878 2.99998 0.999878Z" stroke="#1F83DE" stroke-width="2"/>
<path d="M35.464 11.2498H26.7502C25.3702 11.2498 24.2502 10.1298 24.2502 8.7498V0.0247803L35.464 11.2498Z" fill="#1F83DE"/>
<path d="M10.8 15.7778H13.5L15.3 14H20.7L22.5 15.7778H25.2C25.6774 15.7778 26.1352 15.9651 26.4728 16.2985C26.8104 16.6319 27 17.0841 27 17.5556V28.2222C27 28.6937 26.8104 29.1459 26.4728 29.4793C26.1352 29.8127 25.6774 30 25.2 30H10.8C10.3226 30 9.86477 29.8127 9.52721 29.4793C9.18964 29.1459 9 28.6937 9 28.2222V17.5556C9 17.0841 9.18964 16.6319 9.52721 16.2985C9.86477 15.9651 10.3226 15.7778 10.8 15.7778ZM18 18.4444C16.8065 18.4444 15.6619 18.9127 14.818 19.7462C13.9741 20.5797 13.5 21.7101 13.5 22.8889C13.5 24.0676 13.9741 25.1981 14.818 26.0316C15.6619 26.8651 16.8065 27.3333 18 27.3333C19.1935 27.3333 20.3381 26.8651 21.182 26.0316C22.0259 25.1981 22.5 24.0676 22.5 22.8889C22.5 21.7101 22.0259 20.5797 21.182 19.7462C20.3381 18.9127 19.1935 18.4444 18 18.4444ZM18 20.2222C18.7161 20.2222 19.4028 20.5032 19.9092 21.0033C20.4155 21.5034 20.7 22.1816 20.7 22.8889C20.7 23.5961 20.4155 24.2744 19.9092 24.7745C19.4028 25.2746 18.7161 25.5556 18 25.5556C17.2839 25.5556 16.5972 25.2746 16.0908 24.7745C15.5845 24.2744 15.3 23.5961 15.3 22.8889C15.3 22.1816 15.5845 21.5034 16.0908 21.0033C16.5972 20.5032 17.2839 20.2222 18 20.2222Z" fill="#1F83DE"/>
</svg>
