<svg width="40" height="40" viewBox="0 0 40 40" fill="none" xmlns="http://www.w3.org/2000/svg">
<rect width="40" height="40" rx="20" fill="#2F2F2F"/>
<path fill-rule="evenodd" clip-rule="evenodd" d="M24.1081 18.9189C24.1081 21.7848 21.7848 24.1081 18.9189 24.1081C16.053 24.1081 13.7297 21.7848 13.7297 18.9189C13.7297 16.053 16.053 13.7297 18.9189 13.7297C21.7848 13.7297 24.1081 16.053 24.1081 18.9189ZM22.8077 24.6424C21.6995 25.3968 20.3607 25.8378 18.9189 25.8378C15.0977 25.8378 12 22.7401 12 18.9189C12 15.0977 15.0977 12 18.9189 12C22.7401 12 25.8378 15.0977 25.8378 18.9189C25.8378 20.3607 25.3968 21.6995 24.6424 22.8077L27.62 25.7854C28.1267 26.292 28.1267 27.1134 27.62 27.62C27.1134 28.1267 26.292 28.1267 25.7854 27.62L22.8077 24.6424Z" fill="#F7F7F7"/>
</svg>
