<svg width="40" height="40" viewBox="0 0 40 40" fill="none" xmlns="http://www.w3.org/2000/svg">
<path fill-rule="evenodd" clip-rule="evenodd" d="M20 0C8.95431 0 0 8.95431 0 20C0 31.0457 8.95431 40 20 40C31.0457 40 40 31.0457 40 20C40 8.95431 31.0457 0 20 0ZM18.9189 24.1081C21.7848 24.1081 24.1081 21.7848 24.1081 18.9189C24.1081 16.053 21.7848 13.7297 18.9189 13.7297C16.053 13.7297 13.7297 16.053 13.7297 18.9189C13.7297 21.7848 16.053 24.1081 18.9189 24.1081ZM18.9189 25.8378C20.3607 25.8378 21.6995 25.3968 22.8077 24.6424L25.7854 27.62C26.292 28.1267 27.1134 28.1267 27.62 27.62C28.1267 27.1134 28.1267 26.292 27.62 25.7854L24.6424 22.8077C25.3968 21.6995 25.8378 20.3607 25.8378 18.9189C25.8378 15.0977 22.7401 12 18.9189 12C15.0977 12 12 15.0977 12 18.9189C12 22.7401 15.0977 25.8378 18.9189 25.8378Z" fill="white"/>
</svg>
