<svg width="40" height="40" viewBox="0 0 40 40" fill="none" xmlns="http://www.w3.org/2000/svg">
<mask id="path-1-inside-1" fill="white">
<path fill-rule="evenodd" clip-rule="evenodd" d="M20 40C31.0457 40 40 31.0457 40 20C40 8.9543 31.0457 0 20 0C8.9543 0 0 8.9543 0 20C0 31.0457 8.9543 40 20 40ZM24.1977 26.8088L18.2686 22.2392L25.0918 15.8161C25.3903 15.5383 25.0259 15.4039 24.6294 15.6553L16.2072 21.1969L12.5707 20.0129C11.7846 19.7615 11.7804 19.1987 12.7473 18.7938L26.9206 13.0928C27.5666 12.7858 28.1916 13.255 27.945 14.2885L25.5318 26.1539C25.3623 26.9973 24.8746 27.1991 24.1977 26.8088Z"/>
</mask>
<path fill-rule="evenodd" clip-rule="evenodd" d="M20 40C31.0457 40 40 31.0457 40 20C40 8.9543 31.0457 0 20 0C8.9543 0 0 8.9543 0 20C0 31.0457 8.9543 40 20 40ZM24.1977 26.8088L18.2686 22.2392L25.0918 15.8161C25.3903 15.5383 25.0259 15.4039 24.6294 15.6553L16.2072 21.1969L12.5707 20.0129C11.7846 19.7615 11.7804 19.1987 12.7473 18.7938L26.9206 13.0928C27.5666 12.7858 28.1916 13.255 27.945 14.2885L25.5318 26.1539C25.3623 26.9973 24.8746 27.1991 24.1977 26.8088Z" fill="white"/>
<path d="M18.2686 22.2392L16.8977 20.7829L15.1894 22.3911L17.0477 23.8233L18.2686 22.2392ZM24.1977 26.8088L22.9769 28.3929L23.0828 28.4745L23.1987 28.5413L24.1977 26.8088ZM25.0918 15.8161L23.7294 14.3519L23.7209 14.3598L25.0918 15.8161ZM24.6294 15.6553L23.5585 13.9661L23.5442 13.9752L23.53 13.9845L24.6294 15.6553ZM16.2072 21.1969L15.588 23.0987L16.5028 23.3965L17.3066 22.8677L16.2072 21.1969ZM12.5707 20.0129L13.1899 18.1111L13.18 18.1079L12.5707 20.0129ZM12.7473 18.7938L12.0009 16.9382L11.9878 16.9435L11.9748 16.949L12.7473 18.7938ZM26.9206 13.0928L27.6669 14.9483L27.7237 14.9254L27.7789 14.8992L26.9206 13.0928ZM27.945 14.2885L25.9996 13.8242L25.9918 13.857L25.9851 13.8899L27.945 14.2885ZM25.5318 26.1539L23.5719 25.7553L23.5711 25.7597L25.5318 26.1539ZM38 20C38 29.9411 29.9411 38 20 38V42C32.1503 42 42 32.1503 42 20H38ZM20 2C29.9411 2 38 10.0589 38 20H42C42 7.84974 32.1503 -2 20 -2V2ZM2 20C2 10.0589 10.0589 2 20 2V-2C7.84974 -2 -2 7.84974 -2 20H2ZM20 38C10.0589 38 2 29.9411 2 20H-2C-2 32.1503 7.84974 42 20 42V38ZM17.0477 23.8233L22.9769 28.3929L25.4186 25.2246L19.4895 20.6551L17.0477 23.8233ZM23.7209 14.3598L16.8977 20.7829L19.6395 23.6955L26.4627 17.2723L23.7209 14.3598ZM25.7002 17.3444C25.6194 17.3957 25.4989 17.4544 25.333 17.4902C25.2059 17.5177 24.8703 17.5714 24.4486 17.4207C24.2239 17.3405 23.8992 17.1727 23.6252 16.8334C23.3292 16.4668 23.1873 16.0144 23.2024 15.5706C23.2283 14.8078 23.6828 14.3953 23.7294 14.3519L26.4542 17.2803C26.6501 17.098 27.171 16.5646 27.2001 15.7063C27.2168 15.2147 27.0607 14.721 26.7372 14.3204C26.4357 13.947 26.0703 13.7525 25.7939 13.6538C25.2688 13.4662 24.7864 13.5161 24.4888 13.5803C24.1523 13.653 23.8376 13.7892 23.5585 13.9661L25.7002 17.3444ZM17.3066 22.8677L25.7287 17.326L23.53 13.9845L15.1079 19.5262L17.3066 22.8677ZM11.9515 21.9146L15.588 23.0987L16.8264 19.2952L13.1899 18.1112L11.9515 21.9146ZM11.9748 16.949C11.598 17.1068 11.1938 17.3283 10.8458 17.649C10.5067 17.9616 10.0852 18.5004 10.0109 19.2683C9.93024 20.102 10.2977 20.7749 10.7269 21.1978C11.122 21.5872 11.5874 21.7982 11.9615 21.9178L13.18 18.1079C13.1819 18.1086 13.2169 18.1197 13.2738 18.1508C13.3292 18.1812 13.4261 18.242 13.5345 18.3487C13.772 18.5828 14.0514 19.0425 13.9923 19.6534C13.9396 20.1986 13.6492 20.5051 13.5566 20.5904C13.4552 20.6838 13.4131 20.6832 13.5198 20.6385L11.9748 16.949ZM26.1742 11.2372L12.0009 16.9382L13.4936 20.6493L27.6669 14.9483L26.1742 11.2372ZM29.8903 14.7528C30.1046 13.8551 30.0604 12.6606 29.1884 11.7804C28.258 10.8413 26.9769 10.8517 26.0622 11.2863L27.7789 14.8992C27.5103 15.0269 26.8646 15.1184 26.3467 14.5955C25.887 14.1315 26.032 13.6884 25.9996 13.8242L29.8903 14.7528ZM27.4917 26.5525L29.9048 14.6871L25.9851 13.8899L23.572 25.7553L27.4917 26.5525ZM23.1987 28.5413C23.7697 28.8706 24.8067 29.2708 25.9061 28.7539C26.9862 28.246 27.3598 27.2085 27.4926 26.5481L23.5711 25.7597C23.5343 25.9427 23.5793 25.4278 24.204 25.1341C24.8479 24.8313 25.3026 25.1372 25.1968 25.0762L23.1987 28.5413Z" fill="white" mask="url(#path-1-inside-1)"/>
</svg>
