<svg width="24" height="24" viewBox="0 0 24 24" fill="none" xmlns="http://www.w3.org/2000/svg">
<path fill-rule="evenodd" clip-rule="evenodd" d="M12 24C18.6274 24 24 18.6274 24 12C24 5.37258 18.6274 0 12 0C5.37258 0 0 5.37258 0 12C0 18.6274 5.37258 24 12 24ZM14.5186 16.0853L10.9612 13.3435L15.0551 9.48964C15.2342 9.323 15.0156 9.24231 14.7776 9.39317L9.72433 12.7182L7.54243 12.0077C7.07073 11.8569 7.06821 11.5192 7.64837 11.2762L16.1523 7.85565C16.54 7.67147 16.915 7.95301 16.767 8.5731L15.3191 15.6923C15.2174 16.1984 14.9248 16.3194 14.5186 16.0853Z" fill="#2F2F2F"/>
</svg>
