<svg width="40" height="40" viewBox="0 0 40 40" fill="none" xmlns="http://www.w3.org/2000/svg">
<mask id="path-1-inside-1" fill="white">
<path fill-rule="evenodd" clip-rule="evenodd" d="M20 40C31.0457 40 40 31.0457 40 20C40 8.9543 31.0457 0 20 0C8.9543 0 0 8.9543 0 20C0 31.0457 8.9543 40 20 40ZM21.2455 24.7492C21.0816 24.9234 20.7606 24.9581 20.7606 24.9581H19.698C19.698 24.9581 17.3533 25.0973 15.2886 22.9778C13.0368 20.6659 11.0481 16.0784 11.0481 16.0784C11.0481 16.0784 10.9335 15.7776 11.058 15.6322C11.198 15.4687 11.5793 15.4582 11.5793 15.4582L14.1195 15.4418C14.1195 15.4418 14.3589 15.4813 14.5303 15.6053C14.6715 15.7076 14.7506 15.8989 14.7506 15.8989C14.7506 15.8989 15.1612 16.9227 15.7049 17.8488C16.7661 19.6569 17.2604 20.0524 17.6207 19.8587C18.1456 19.5763 17.9883 17.3027 17.9883 17.3027C17.9883 17.3027 17.9979 16.4774 17.724 16.11C17.5119 15.8252 17.1117 15.7421 16.935 15.7188C16.7922 15.7 17.0268 15.3728 17.3309 15.226C17.788 15.0051 18.5953 14.9925 19.5491 15.0023C20.2922 15.0097 20.506 15.0553 20.7966 15.1246C21.4707 15.2851 21.4497 15.7994 21.4044 16.909C21.3908 17.2406 21.3751 17.6253 21.3751 18.0697C21.3751 18.1697 21.3721 18.2762 21.3691 18.3858C21.3533 18.9541 21.3353 19.6048 21.7147 19.8466C21.9092 19.9703 22.3851 19.8651 23.5754 17.8722C24.1397 16.9277 24.5628 15.8171 24.5628 15.8171C24.5628 15.8171 24.6552 15.6191 24.7988 15.5341C24.9458 15.4475 25.1439 15.4742 25.1439 15.4742L27.8171 15.4577C27.8171 15.4577 28.6203 15.3633 28.7504 15.7207C28.8867 16.096 28.4501 16.9722 27.358 18.4074C26.3217 19.7693 25.8177 20.2705 25.8642 20.714C25.8982 21.0379 26.2258 21.3309 26.8541 21.906C28.1699 23.1102 28.5206 23.7425 28.604 23.8928C28.6107 23.905 28.6157 23.914 28.6193 23.9199C29.2082 24.8827 27.9662 24.9581 27.9662 24.9581L25.5921 24.9907C25.5921 24.9907 25.0819 25.0904 24.4105 24.6357C24.0593 24.3981 23.7161 24.01 23.389 23.6403C22.889 23.0751 22.4269 22.5527 22.0325 22.676C21.3707 22.8831 21.3915 24.289 21.3915 24.289C21.3915 24.289 21.3963 24.5893 21.2455 24.7492Z"/>
</mask>
<path fill-rule="evenodd" clip-rule="evenodd" d="M20 40C31.0457 40 40 31.0457 40 20C40 8.9543 31.0457 0 20 0C8.9543 0 0 8.9543 0 20C0 31.0457 8.9543 40 20 40ZM21.2455 24.7492C21.0816 24.9234 20.7606 24.9581 20.7606 24.9581H19.698C19.698 24.9581 17.3533 25.0973 15.2886 22.9778C13.0368 20.6659 11.0481 16.0784 11.0481 16.0784C11.0481 16.0784 10.9335 15.7776 11.058 15.6322C11.198 15.4687 11.5793 15.4582 11.5793 15.4582L14.1195 15.4418C14.1195 15.4418 14.3589 15.4813 14.5303 15.6053C14.6715 15.7076 14.7506 15.8989 14.7506 15.8989C14.7506 15.8989 15.1612 16.9227 15.7049 17.8488C16.7661 19.6569 17.2604 20.0524 17.6207 19.8587C18.1456 19.5763 17.9883 17.3027 17.9883 17.3027C17.9883 17.3027 17.9979 16.4774 17.724 16.11C17.5119 15.8252 17.1117 15.7421 16.935 15.7188C16.7922 15.7 17.0268 15.3728 17.3309 15.226C17.788 15.0051 18.5953 14.9925 19.5491 15.0023C20.2922 15.0097 20.506 15.0553 20.7966 15.1246C21.4707 15.2851 21.4497 15.7994 21.4044 16.909C21.3908 17.2406 21.3751 17.6253 21.3751 18.0697C21.3751 18.1697 21.3721 18.2762 21.3691 18.3858C21.3533 18.9541 21.3353 19.6048 21.7147 19.8466C21.9092 19.9703 22.3851 19.8651 23.5754 17.8722C24.1397 16.9277 24.5628 15.8171 24.5628 15.8171C24.5628 15.8171 24.6552 15.6191 24.7988 15.5341C24.9458 15.4475 25.1439 15.4742 25.1439 15.4742L27.8171 15.4577C27.8171 15.4577 28.6203 15.3633 28.7504 15.7207C28.8867 16.096 28.4501 16.9722 27.358 18.4074C26.3217 19.7693 25.8177 20.2705 25.8642 20.714C25.8982 21.0379 26.2258 21.3309 26.8541 21.906C28.1699 23.1102 28.5206 23.7425 28.604 23.8928C28.6107 23.905 28.6157 23.914 28.6193 23.9199C29.2082 24.8827 27.9662 24.9581 27.9662 24.9581L25.5921 24.9907C25.5921 24.9907 25.0819 25.0904 24.4105 24.6357C24.0593 24.3981 23.7161 24.01 23.389 23.6403C22.889 23.0751 22.4269 22.5527 22.0325 22.676C21.3707 22.8831 21.3915 24.289 21.3915 24.289C21.3915 24.289 21.3963 24.5893 21.2455 24.7492Z" fill="white"/>
<path d="M20.7606 24.9581V26.9581H20.8685L20.9758 26.9465L20.7606 24.9581ZM21.2455 24.7492L19.7906 23.3769L19.7888 23.3788L21.2455 24.7492ZM19.698 24.9581V22.9581H19.6386L19.5794 22.9616L19.698 24.9581ZM15.2886 22.9778L13.8559 24.3732L13.8559 24.3733L15.2886 22.9778ZM11.0481 16.0784L9.17927 16.7906L9.19527 16.8326L9.21314 16.8738L11.0481 16.0784ZM11.058 15.6322L12.577 16.9332L12.5772 16.933L11.058 15.6322ZM11.5793 15.4582L11.5664 13.4583L11.5454 13.4584L11.5244 13.459L11.5793 15.4582ZM14.1195 15.4418L14.4451 13.4685L14.277 13.4407L14.1066 13.4418L14.1195 15.4418ZM14.5303 15.6053L15.7039 13.9859L15.7027 13.9849L14.5303 15.6053ZM14.7506 15.8989L16.6069 15.1545L16.6029 15.1444L16.5987 15.1343L14.7506 15.8989ZM15.7049 17.8488L17.4298 16.8365L17.4296 16.8363L15.7049 17.8488ZM17.6207 19.8587L18.5677 21.6203L18.5684 21.6199L17.6207 19.8587ZM17.9883 17.3027L15.9884 17.2793L15.9875 17.3602L15.993 17.4408L17.9883 17.3027ZM17.724 16.11L16.12 17.3046L16.1206 17.3054L17.724 16.11ZM16.935 15.7188L17.1968 13.736L17.1959 13.7359L16.935 15.7188ZM17.3309 15.226L18.2004 17.027L18.2009 17.0268L17.3309 15.226ZM19.5491 15.0023L19.5286 17.0022L19.5292 17.0022L19.5491 15.0023ZM20.7966 15.1246L20.3329 17.0701L20.3334 17.0702L20.7966 15.1246ZM21.4044 16.909L19.406 16.8274V16.8274L21.4044 16.909ZM21.3691 18.3858L23.3683 18.4413V18.4412L21.3691 18.3858ZM21.7147 19.8466L20.6397 21.5332L20.6412 21.5341L21.7147 19.8466ZM23.5754 17.8722L21.8585 16.8464L21.8584 16.8466L23.5754 17.8722ZM24.5628 15.8171L22.7505 14.971L22.7197 15.037L22.6938 15.1051L24.5628 15.8171ZM24.7988 15.5341L23.7834 13.8111L23.7805 13.8128L24.7988 15.5341ZM25.1439 15.4742L24.8773 17.4563L25.0161 17.475L25.1562 17.4741L25.1439 15.4742ZM27.8171 15.4577L27.8294 17.4577L27.9404 17.457L28.0507 17.444L27.8171 15.4577ZM28.7504 15.7207L30.6301 15.0377L30.6298 15.0367L28.7504 15.7207ZM27.358 18.4074L25.7664 17.1962L25.7664 17.1963L27.358 18.4074ZM25.8642 20.714L27.8533 20.5053V20.5053L25.8642 20.714ZM26.8541 21.906L28.2044 20.4306L28.2044 20.4306L26.8541 21.906ZM28.604 23.8928L30.353 22.9228L30.353 22.9228L28.604 23.8928ZM28.6193 23.9199L30.3255 22.8763L30.3246 22.875L28.6193 23.9199ZM27.9662 24.9581L27.9937 26.9579L28.0406 26.9573L28.0875 26.9545L27.9662 24.9581ZM25.5921 24.9907L25.5646 22.9909L25.3849 22.9934L25.2085 23.0279L25.5921 24.9907ZM24.4105 24.6357L25.532 22.9798L25.5314 22.9793L24.4105 24.6357ZM23.389 23.6403L24.887 22.3151V22.3151L23.389 23.6403ZM22.0325 22.676L21.4357 20.7671L21.4354 20.7672L22.0325 22.676ZM21.3915 24.289L19.3917 24.3185L19.3917 24.3211L21.3915 24.289ZM38 20C38 29.9411 29.9411 38 20 38V42C32.1503 42 42 32.1503 42 20H38ZM20 2C29.9411 2 38 10.0589 38 20H42C42 7.84974 32.1503 -2 20 -2V2ZM2 20C2 10.0589 10.0589 2 20 2V-2C7.84974 -2 -2 7.84974 -2 20H2ZM20 38C10.0589 38 2 29.9411 2 20H-2C-2 32.1503 7.84974 42 20 42V38ZM20.7606 24.9581C20.9758 26.9465 20.9763 26.9465 20.9768 26.9464C20.9769 26.9464 20.9774 26.9463 20.9777 26.9463C20.9784 26.9462 20.979 26.9462 20.9797 26.9461C20.981 26.946 20.9823 26.9458 20.9836 26.9457C20.9863 26.9454 20.9892 26.945 20.9921 26.9447C20.9979 26.944 21.0041 26.9433 21.0108 26.9424C21.0241 26.9408 21.0391 26.9388 21.0556 26.9365C21.0884 26.9318 21.1282 26.9256 21.1735 26.9173C21.2619 26.9011 21.3826 26.8751 21.5205 26.8334C21.7358 26.7683 22.2606 26.589 22.7022 26.1196L19.7888 23.3788C20.0665 23.0836 20.3488 23.0088 20.3627 23.0046C20.3999 22.9934 20.4301 22.9869 20.4531 22.9827C20.4658 22.9804 20.4792 22.9782 20.4939 22.9761C20.5013 22.9751 20.5092 22.974 20.5177 22.973C20.522 22.9724 20.5264 22.9719 20.531 22.9714C20.5333 22.9711 20.5357 22.9708 20.5381 22.9706C20.5393 22.9704 20.5405 22.9703 20.5417 22.9702C20.5423 22.9701 20.5429 22.97 20.5435 22.9699C20.5438 22.9699 20.5443 22.9699 20.5445 22.9698C20.5449 22.9698 20.5454 22.9697 20.7606 24.9581ZM19.698 26.9581H20.7606V22.9581H19.698V26.9581ZM13.8559 24.3733C15.1796 25.7322 16.6163 26.3856 17.7415 26.6924C18.3007 26.8448 18.7831 26.912 19.1406 26.9405C19.3199 26.9547 19.4694 26.9594 19.5834 26.96C19.6405 26.9602 19.6889 26.9595 19.7279 26.9584C19.7474 26.9578 19.7646 26.9572 19.7794 26.9565C19.7868 26.9562 19.7936 26.9559 19.7998 26.9555C19.8029 26.9554 19.8058 26.9552 19.8086 26.9551C19.81 26.955 19.8114 26.9549 19.8127 26.9548C19.8133 26.9548 19.8143 26.9547 19.8146 26.9547C19.8156 26.9547 19.8165 26.9546 19.698 24.9581C19.5794 22.9616 19.5804 22.9616 19.5813 22.9615C19.5816 22.9615 19.5825 22.9615 19.583 22.9614C19.5842 22.9614 19.5854 22.9613 19.5865 22.9612C19.5887 22.9611 19.5908 22.961 19.5927 22.9609C19.5966 22.9607 19.6 22.9605 19.6029 22.9604C19.6087 22.9602 19.6125 22.96 19.6143 22.96C19.618 22.9599 19.614 22.9601 19.603 22.96C19.5807 22.9599 19.5309 22.9589 19.4581 22.9531C19.3114 22.9414 19.0786 22.9109 18.7935 22.8332C18.2303 22.6797 17.4622 22.3429 16.7212 21.5822L13.8559 24.3733ZM11.0481 16.0784C9.21314 16.8738 9.21324 16.8741 9.21334 16.8743C9.21339 16.8744 9.2135 16.8747 9.21359 16.8749C9.21377 16.8753 9.21398 16.8758 9.21422 16.8763C9.2147 16.8774 9.21531 16.8788 9.21603 16.8805C9.21748 16.8838 9.21942 16.8883 9.22184 16.8938C9.22667 16.9048 9.23342 16.9202 9.24203 16.9396C9.25926 16.9786 9.28396 17.034 9.3157 17.1042C9.37917 17.2445 9.47098 17.4443 9.58777 17.69C9.82084 18.1803 10.1559 18.8586 10.5658 19.6145C11.3618 21.0823 12.5286 23.0105 13.8559 24.3732L16.7213 21.5823C15.7968 20.6332 14.8434 19.1117 14.0821 17.7077C13.7134 17.0278 13.4105 16.4147 13.2003 15.9726C13.0955 15.7521 13.0144 15.5754 12.9603 15.4558C12.9332 15.3961 12.913 15.3506 12.9 15.3213C12.8935 15.3066 12.8888 15.2959 12.886 15.2894C12.8846 15.2862 12.8836 15.284 12.8831 15.2829C12.8829 15.2824 12.8828 15.2821 12.8828 15.2821C12.8828 15.2821 12.8828 15.2821 12.8829 15.2823C12.8829 15.2823 12.883 15.2825 12.883 15.2825C12.8831 15.2827 12.8831 15.2829 11.0481 16.0784ZM9.53905 14.3311C8.87126 15.1108 9.00185 16.0169 9.02576 16.1875C9.04905 16.3536 9.084 16.4916 9.11073 16.5841C9.12475 16.6326 9.13825 16.6746 9.14981 16.7087C9.15563 16.7258 9.16108 16.7413 9.16601 16.7549C9.16848 16.7617 9.17083 16.7681 9.17304 16.7741C9.17415 16.7771 9.17522 16.7799 9.17626 16.7827C9.17678 16.7841 9.17729 16.7854 9.17779 16.7867C9.17804 16.7874 9.17829 16.7881 9.17854 16.7887C9.17866 16.789 9.17885 16.7895 9.17891 16.7897C9.17909 16.7902 9.17927 16.7906 11.0481 16.0784C12.917 15.3661 12.9172 15.3666 12.9174 15.367C12.9174 15.3672 12.9176 15.3677 12.9177 15.368C12.918 15.3686 12.9182 15.3693 12.9184 15.3699C12.9189 15.3711 12.9194 15.3724 12.9199 15.3736C12.9208 15.3761 12.9217 15.3785 12.9226 15.3809C12.9244 15.3857 12.9261 15.3904 12.9278 15.395C12.9311 15.4042 12.9342 15.413 12.9371 15.4217C12.9429 15.4386 12.9484 15.456 12.9536 15.4741C12.9627 15.5057 12.9768 15.5594 12.987 15.6321C12.9959 15.6957 13.0121 15.8428 12.9849 16.0387C12.9577 16.2341 12.8707 16.5903 12.577 16.9332L9.53905 14.3311ZM11.5793 15.4582C11.5244 13.459 11.524 13.459 11.5236 13.459C11.5235 13.459 11.5231 13.459 11.5228 13.459C11.5222 13.459 11.5217 13.4591 11.5211 13.4591C11.5199 13.4591 11.5188 13.4591 11.5176 13.4592C11.5151 13.4592 11.5126 13.4593 11.5099 13.4594C11.5046 13.4596 11.4988 13.4598 11.4926 13.4601C11.4801 13.4606 11.4658 13.4613 11.4497 13.4622C11.4177 13.464 11.3779 13.4668 11.332 13.471C11.2434 13.4793 11.1166 13.4946 10.9708 13.5244C10.8318 13.5528 10.6278 13.6038 10.4047 13.7003C10.1969 13.7902 9.84545 13.9733 9.53884 14.3314L12.5772 16.933C12.3406 17.2093 12.0894 17.3298 11.9924 17.3717C11.8801 17.4203 11.7978 17.4381 11.7715 17.4434C11.7386 17.4501 11.7158 17.4526 11.7032 17.4538C11.6952 17.4545 11.6863 17.4552 11.6757 17.4558C11.6703 17.4561 11.6643 17.4564 11.6574 17.4567C11.654 17.4568 11.6504 17.457 11.6465 17.4571C11.6446 17.4572 11.6426 17.4572 11.6406 17.4573C11.6396 17.4573 11.6385 17.4573 11.6375 17.4574C11.6369 17.4574 11.6364 17.4574 11.6359 17.4574C11.6356 17.4574 11.6352 17.4574 11.6351 17.4574C11.6346 17.4575 11.6342 17.4575 11.5793 15.4582ZM14.1066 13.4418L11.5664 13.4583L11.5923 17.4582L14.1324 17.4418L14.1066 13.4418ZM15.7027 13.9849C15.368 13.7428 15.0345 13.6235 14.8567 13.5679C14.7546 13.5361 14.6655 13.5137 14.5977 13.4985C14.5633 13.4908 14.533 13.4846 14.5075 13.4797C14.4948 13.4772 14.4832 13.4751 14.4728 13.4732C14.4675 13.4723 14.4626 13.4714 14.458 13.4707C14.4557 13.4703 14.4535 13.4699 14.4513 13.4695C14.4503 13.4693 14.4492 13.4692 14.4482 13.469C14.4476 13.4689 14.4471 13.4688 14.4466 13.4687C14.4464 13.4687 14.446 13.4686 14.4459 13.4686C14.4455 13.4685 14.4451 13.4685 14.1195 15.4418C13.7939 17.4151 13.7935 17.4151 13.7932 17.415C13.793 17.415 13.7927 17.4149 13.7924 17.4149C13.7919 17.4148 13.7914 17.4147 13.7909 17.4146C13.79 17.4145 13.789 17.4143 13.788 17.4141C13.7861 17.4138 13.7842 17.4135 13.7824 17.4132C13.7787 17.4125 13.7751 17.4119 13.7717 17.4113C13.7649 17.4101 13.7586 17.4089 13.7527 17.4078C13.741 17.4056 13.7307 17.4034 13.7215 17.4013C13.704 17.3974 13.6854 17.3927 13.6646 17.3862C13.6493 17.3814 13.5212 17.3438 13.3579 17.2256L15.7027 13.9849ZM14.7506 15.8989C16.5987 15.1343 16.5985 15.1339 16.5984 15.1335C16.5983 15.1334 16.5981 15.133 16.598 15.1327C16.5978 15.1322 16.5976 15.1316 16.5973 15.1311C16.5969 15.13 16.5964 15.1289 16.596 15.1277C16.595 15.1255 16.594 15.1232 16.593 15.1208C16.591 15.116 16.5889 15.111 16.5866 15.1057C16.582 15.0951 16.5769 15.0835 16.5713 15.0709C16.56 15.0457 16.5463 15.0163 16.53 14.9833C16.4982 14.9188 16.4535 14.8343 16.395 14.7396C16.2965 14.5801 16.078 14.257 15.7039 13.9859L13.3566 17.2247C13.1237 17.0559 13.0154 16.8797 12.9917 16.8414C12.9707 16.8073 12.9546 16.777 12.9421 16.7515C12.9355 16.7381 12.929 16.7244 12.9226 16.7102C12.9194 16.703 12.9161 16.6956 12.9128 16.6879C12.9111 16.684 12.9095 16.68 12.9078 16.676C12.9069 16.674 12.906 16.6719 12.9052 16.6699C12.9047 16.6688 12.9043 16.6678 12.9039 16.6667C12.9037 16.6662 12.9034 16.6657 12.9032 16.6652C12.9031 16.6649 12.9029 16.6645 12.9029 16.6644C12.9027 16.664 12.9026 16.6636 14.7506 15.8989ZM17.4296 16.8363C17.2044 16.4526 16.997 16.031 16.8415 15.6923C16.7653 15.5261 16.7045 15.3866 16.6637 15.2905C16.6433 15.2426 16.628 15.2058 16.6183 15.1824C16.6135 15.1707 16.6101 15.1623 16.6082 15.1576C16.6072 15.1552 16.6066 15.1537 16.6064 15.1532C16.6063 15.153 16.6063 15.1529 16.6064 15.1532C16.6064 15.1533 16.6065 15.1534 16.6066 15.1537C16.6066 15.1538 16.6067 15.1539 16.6067 15.1541C16.6068 15.1541 16.6068 15.1543 16.6068 15.1543C16.6069 15.1544 16.6069 15.1545 14.7506 15.8989C12.8943 16.6433 12.8944 16.6435 12.8944 16.6436C12.8944 16.6437 12.8945 16.6438 12.8945 16.6439C12.8946 16.6441 12.8947 16.6443 12.8948 16.6446C12.895 16.6451 12.8952 16.6456 12.8955 16.6462C12.896 16.6474 12.8965 16.6489 12.8972 16.6506C12.8986 16.654 12.9004 16.6584 12.9026 16.6637C12.9069 16.6745 12.9129 16.689 12.9203 16.7071C12.9352 16.7433 12.9563 16.7937 12.9829 16.8563C13.036 16.9811 13.1119 17.1554 13.2062 17.3608C13.3919 17.7655 13.6617 18.319 13.9802 18.8614L17.4296 16.8363ZM16.6737 18.0971C16.8435 18.0059 17.0599 17.9302 17.3116 17.9091C17.5625 17.8881 17.7828 17.9269 17.9544 17.9844C18.2599 18.0869 18.3902 18.2405 18.3385 18.1889C18.3041 18.1545 18.2078 18.0468 18.0414 17.8084C17.88 17.5771 17.679 17.2611 17.4298 16.8365L13.98 18.8612C14.5171 19.7763 15.015 20.5232 15.5128 21.02C15.7623 21.269 16.1501 21.5983 16.6827 21.7769C17.3162 21.9893 17.9878 21.932 18.5677 21.6203L16.6737 18.0971ZM17.9883 17.3027C15.993 17.4408 15.993 17.4406 15.993 17.4404C15.993 17.4403 15.993 17.4401 15.993 17.44C15.993 17.4397 15.993 17.4395 15.9929 17.4393C15.9929 17.439 15.9929 17.4388 15.9929 17.4387C15.9929 17.4385 15.9929 17.4388 15.993 17.4397C15.9931 17.4414 15.9933 17.445 15.9937 17.4506C15.9943 17.4617 15.9954 17.4803 15.9967 17.5053C15.9994 17.5555 16.0028 17.6305 16.0056 17.7226C16.0112 17.9104 16.0135 18.1511 16.0032 18.3878C15.9921 18.6426 15.9695 18.8103 15.952 18.8853C15.9429 18.9241 15.9521 18.8629 16.0091 18.7522C16.0553 18.6625 16.2383 18.3314 16.673 18.0975L18.5684 21.6199C19.1343 21.3154 19.4272 20.8515 19.5653 20.5834C19.7142 20.2943 19.7972 20.0091 19.8472 19.7951C19.9478 19.3644 19.9843 18.9107 19.9994 18.5618C20.0154 18.1948 20.0112 17.8494 20.0038 17.6022C20 17.4766 19.9952 17.3718 19.9913 17.2966C19.9893 17.2589 19.9875 17.2283 19.9862 17.206C19.9855 17.1949 19.9849 17.1857 19.9845 17.1788C19.9842 17.1753 19.984 17.1724 19.9839 17.17C19.9838 17.1688 19.9837 17.1678 19.9837 17.1669C19.9836 17.1664 19.9836 17.166 19.9836 17.1656C19.9836 17.1655 19.9835 17.1652 19.9835 17.1651C19.9835 17.1649 19.9835 17.1646 17.9883 17.3027ZM16.1206 17.3054C16.0486 17.2089 16.0088 17.1289 15.9898 17.0868C15.9701 17.043 15.962 17.0154 15.9608 17.0111C15.9595 17.0067 15.9669 17.0335 15.9746 17.0945C15.9816 17.1504 15.9854 17.2065 15.9872 17.2492C15.988 17.2693 15.9882 17.2836 15.9883 17.2898C15.9883 17.2929 15.9883 17.2937 15.9883 17.2921C15.9883 17.2913 15.9883 17.2898 15.9883 17.2877C15.9883 17.2867 15.9883 17.2854 15.9884 17.284C15.9884 17.2833 15.9884 17.2826 15.9884 17.2818C15.9884 17.2814 15.9884 17.281 15.9884 17.2806C15.9884 17.2804 15.9884 17.2801 15.9884 17.28C15.9884 17.2796 15.9884 17.2793 17.9883 17.3027C19.9881 17.3261 19.9881 17.3258 19.9881 17.3254C19.9881 17.3253 19.9882 17.325 19.9882 17.3247C19.9882 17.3243 19.9882 17.3238 19.9882 17.3233C19.9882 17.3223 19.9882 17.3213 19.9882 17.3202C19.9882 17.318 19.9882 17.3156 19.9883 17.3129C19.9883 17.3077 19.9883 17.3015 19.9883 17.2946C19.9883 17.2807 19.9883 17.2635 19.988 17.2432C19.9876 17.2029 19.9864 17.1498 19.9839 17.0869C19.9788 16.9633 19.9679 16.7901 19.9431 16.5938C19.9088 16.3218 19.8035 15.5532 19.3274 14.9146L16.1206 17.3054ZM16.6733 17.7016C16.6654 17.7006 16.6334 17.6972 16.5753 17.674C16.5287 17.6555 16.3139 17.565 16.12 17.3046L19.328 14.9154C18.922 14.3702 18.401 14.0958 18.0571 13.9586C17.7017 13.8169 17.3813 13.7604 17.1968 13.736L16.6733 17.7016ZM16.4613 13.4249C16.0102 13.6427 15.6358 13.9683 15.3797 14.3015C15.2837 14.4264 15.0227 14.7794 14.9279 15.2873C14.8782 15.5529 14.8252 16.1341 15.1867 16.7324C15.5929 17.4048 16.2385 17.6444 16.6741 17.7017L17.1959 13.7359C17.5959 13.7885 18.2175 14.0137 18.6104 14.6641C18.9586 15.2403 18.9028 15.7917 18.8598 16.0217C18.7783 16.4584 18.5682 16.7169 18.551 16.7393C18.4525 16.8674 18.3475 16.956 18.2004 17.027L16.4613 13.4249ZM19.5695 13.0024C19.0948 12.9975 18.5742 12.9965 18.098 13.0337C17.6588 13.068 17.0361 13.1472 16.4608 13.4251L18.2009 17.0268C18.1227 17.0646 18.0904 17.0656 18.1419 17.0549C18.1891 17.0451 18.2741 17.0321 18.4094 17.0216C18.6896 16.9997 19.0495 16.9973 19.5286 17.0022L19.5695 13.0024ZM21.2602 13.1791C20.8053 13.0707 20.4408 13.011 19.5689 13.0024L19.5292 17.0022C19.8689 17.0055 20.0301 17.0175 20.1141 17.0271C20.1764 17.0343 20.2103 17.0409 20.3329 17.0701L21.2602 13.1791ZM23.4027 16.9907C23.4197 16.5757 23.472 15.8081 23.3081 15.1662C23.2049 14.7617 22.9943 14.2807 22.5648 13.8698C22.1438 13.4671 21.6612 13.2745 21.2598 13.179L20.3334 17.0702C20.269 17.0549 20.0366 16.9868 19.7998 16.7603C19.5546 16.5257 19.4623 16.2728 19.4324 16.1555C19.4101 16.0683 19.4218 16.0542 19.4234 16.2058C19.425 16.3503 19.418 16.5338 19.406 16.8274L23.4027 16.9907ZM23.3751 18.0697C23.3751 17.6708 23.3891 17.3232 23.4027 16.9907L19.406 16.8274C19.3925 17.1581 19.3751 17.5799 19.3751 18.0697H23.3751ZM23.3683 18.4412C23.3712 18.3377 23.3751 18.2025 23.3751 18.0697H19.3751C19.3751 18.1368 19.3731 18.2147 19.3699 18.3304L23.3683 18.4412ZM22.7896 18.16C23.0609 18.3329 23.2144 18.5545 23.2909 18.7092C23.3273 18.7828 23.3469 18.8417 23.3569 18.8765C23.3669 18.9114 23.37 18.9317 23.3701 18.9321C23.3702 18.9328 23.3685 18.9219 23.3667 18.8962C23.365 18.8708 23.3635 18.8368 23.3629 18.7919C23.3616 18.6959 23.3642 18.5905 23.3683 18.4413L19.3699 18.3304C19.3632 18.5688 19.3431 19.0667 19.4173 19.5452C19.4861 19.9885 19.7106 20.941 20.6397 21.5331L22.7896 18.16ZM21.8584 16.8466C21.5849 17.3045 21.37 17.6243 21.2069 17.8428C21.1261 17.9511 21.0625 18.0285 21.0155 18.0817C20.9923 18.1081 20.9743 18.1271 20.9615 18.1401C20.9551 18.1466 20.9503 18.1513 20.947 18.1545C20.9436 18.1577 20.942 18.1591 20.942 18.1591C20.942 18.1591 20.9439 18.1575 20.9476 18.1544C20.9513 18.1513 20.9572 18.1466 20.9652 18.1406C20.9807 18.1289 21.0065 18.1106 21.0424 18.0889C21.1115 18.0473 21.2374 17.9816 21.4158 17.9352C21.6006 17.887 21.8345 17.8617 22.0972 17.901C22.3623 17.9406 22.5961 18.0369 22.7881 18.1591L20.6412 21.5341C21.1767 21.8748 21.8176 21.964 22.4244 21.8059C22.943 21.6708 23.3356 21.3836 23.6012 21.1472C24.1298 20.6767 24.673 19.9349 25.2925 18.8977L21.8584 16.8466ZM24.5628 15.8171C22.6938 15.1051 22.6938 15.1049 22.6939 15.1048C22.6939 15.1048 22.694 15.1046 22.694 15.1046C22.6941 15.1044 22.6941 15.1042 22.6942 15.1041C22.6943 15.1039 22.6943 15.1037 22.6944 15.1035C22.6945 15.1033 22.6945 15.1033 22.6944 15.1035C22.6942 15.104 22.6936 15.1056 22.6926 15.1081C22.6907 15.1131 22.6872 15.122 22.6823 15.1345C22.6724 15.1596 22.6568 15.1989 22.6359 15.2501C22.5941 15.3528 22.5319 15.5012 22.4538 15.6765C22.2938 16.0357 22.0836 16.4697 21.8585 16.8464L25.2924 18.8979C25.6316 18.3301 25.915 17.7366 26.1076 17.3044C26.2058 17.0839 26.2847 16.8957 26.3398 16.7606C26.3674 16.6929 26.3892 16.6381 26.4047 16.5987C26.4124 16.579 26.4186 16.5632 26.4231 16.5515C26.4254 16.5456 26.4273 16.5408 26.4287 16.537C26.4294 16.5352 26.43 16.5336 26.4305 16.5322C26.4308 16.5316 26.431 16.531 26.4312 16.5304C26.4313 16.5302 26.4314 16.5299 26.4315 16.5297C26.4316 16.5296 26.4316 16.5294 26.4316 16.5294C26.4317 16.5292 26.4318 16.5291 24.5628 15.8171ZM23.7805 13.8128C23.3343 14.0767 23.0762 14.4319 22.9754 14.5795C22.9106 14.6744 22.8609 14.7593 22.8259 14.823C22.808 14.8556 22.7929 14.8847 22.7805 14.9093C22.7743 14.9217 22.7687 14.9331 22.7637 14.9434C22.7612 14.9485 22.7589 14.9534 22.7567 14.958C22.7556 14.9603 22.7545 14.9625 22.7535 14.9647C22.753 14.9658 22.7525 14.9669 22.752 14.9679C22.7517 14.9684 22.7515 14.969 22.7513 14.9695C22.7511 14.9697 22.751 14.9701 22.7509 14.9702C22.7507 14.9706 22.7505 14.971 24.5628 15.8171C26.375 16.6631 26.3748 16.6635 26.3746 16.6639C26.3746 16.664 26.3744 16.6644 26.3743 16.6647C26.3741 16.6652 26.3738 16.6657 26.3736 16.6662C26.3731 16.6672 26.3726 16.6682 26.3722 16.6692C26.3712 16.6711 26.3703 16.6731 26.3694 16.675C26.3676 16.6789 26.3658 16.6826 26.364 16.6863C26.3604 16.6936 26.357 16.7007 26.3536 16.7075C26.3468 16.7209 26.34 16.7339 26.333 16.7467C26.3199 16.7706 26.3023 16.8007 26.2785 16.8354C26.2598 16.8628 26.1197 17.0765 25.8171 17.2555L23.7805 13.8128ZM25.1439 15.4742C25.4105 13.492 25.41 13.4919 25.4095 13.4919C25.4094 13.4919 25.4088 13.4918 25.4085 13.4917C25.4078 13.4916 25.4071 13.4916 25.4064 13.4915C25.405 13.4913 25.4036 13.4911 25.4022 13.4909C25.3993 13.4905 25.3963 13.4901 25.3933 13.4898C25.3872 13.489 25.3808 13.4882 25.3742 13.4874C25.3608 13.4859 25.3462 13.4843 25.3304 13.4827C25.2989 13.4796 25.2619 13.4766 25.2202 13.4744C25.1388 13.4699 25.0304 13.4677 24.9041 13.4754C24.6888 13.4886 24.2438 13.5397 23.7834 13.8111L25.8143 17.2572C25.5008 17.4419 25.2283 17.463 25.1489 17.4679C25.0905 17.4715 25.0408 17.4705 25.0011 17.4683C24.9804 17.4672 24.96 17.4656 24.9399 17.4636C24.9298 17.4626 24.9195 17.4615 24.9092 17.4603C24.904 17.4597 24.8987 17.4591 24.8934 17.4584C24.8908 17.4581 24.8881 17.4577 24.8854 17.4574C24.8841 17.4572 24.8827 17.457 24.8814 17.4569C24.8807 17.4568 24.88 17.4567 24.8794 17.4566C24.879 17.4565 24.8785 17.4565 24.8783 17.4564C24.8778 17.4564 24.8773 17.4563 25.1439 15.4742ZM27.8048 13.4578L25.1316 13.4742L25.1562 17.4741L27.8294 17.4577L27.8048 13.4578ZM30.6298 15.0367C30.3426 14.2478 29.7311 13.8645 29.3588 13.6998C28.9887 13.5361 28.638 13.4849 28.4281 13.4645C28.1979 13.4422 27.995 13.4446 27.8601 13.4504C27.7893 13.4533 27.729 13.4576 27.6827 13.4615C27.6595 13.4635 27.6393 13.4654 27.6227 13.4671C27.6144 13.468 27.6069 13.4688 27.6004 13.4695C27.5971 13.4699 27.5941 13.4702 27.5912 13.4705C27.5898 13.4707 27.5885 13.4709 27.5872 13.471C27.5865 13.4711 27.5859 13.4712 27.5853 13.4712C27.585 13.4713 27.5845 13.4713 27.5843 13.4713C27.5839 13.4714 27.5834 13.4714 27.8171 15.4577C28.0507 17.444 28.0503 17.4441 28.0498 17.4442C28.0497 17.4442 28.0492 17.4442 28.049 17.4443C28.0484 17.4443 28.0478 17.4444 28.0473 17.4445C28.0462 17.4446 28.0451 17.4447 28.0441 17.4448C28.042 17.4451 28.0401 17.4453 28.0384 17.4455C28.0349 17.4458 28.0319 17.4462 28.0295 17.4464C28.0248 17.4469 28.022 17.4471 28.0209 17.4472C28.0191 17.4474 28.0226 17.4471 28.0292 17.4468C28.0489 17.4459 28.0549 17.4471 28.0418 17.4458C28.0334 17.445 28.0055 17.442 27.9624 17.4324C27.9216 17.4233 27.8421 17.4028 27.7405 17.3578C27.5554 17.276 27.093 17.0149 26.871 16.4047L30.6298 15.0367ZM28.9496 19.6185C29.5235 18.8644 29.9868 18.1786 30.2941 17.5799C30.4469 17.2822 30.5959 16.9399 30.6857 16.5761C30.7677 16.2435 30.8582 15.6655 30.6301 15.0377L26.8706 16.4037C26.7107 15.9635 26.7977 15.6358 26.8021 15.6179C26.8143 15.5687 26.8114 15.6055 26.7356 15.7532C26.5857 16.0453 26.2847 16.5151 25.7664 17.1962L28.9496 19.6185ZM27.8533 20.5053C27.8878 20.8337 27.8026 21.0723 27.7659 21.1567C27.7394 21.2174 27.7354 21.2041 27.8347 21.0646C27.9283 20.933 28.058 20.7652 28.2554 20.5133C28.4442 20.2721 28.6801 19.9727 28.9496 19.6185L25.7664 17.1963C25.3293 17.7707 24.8405 18.3732 24.5754 18.7457C24.3481 19.0651 23.7647 19.8704 23.8751 20.9227L27.8533 20.5053ZM28.2044 20.4306C28.0409 20.2809 27.9188 20.1695 27.8152 20.0713C27.7111 19.9726 27.6583 19.9178 27.6324 19.8885C27.6049 19.8575 27.6438 19.8953 27.6954 19.9888C27.7542 20.0952 27.8289 20.2724 27.8533 20.5053L23.8751 20.9227C23.9582 21.7144 24.3882 22.259 24.6402 22.5431C24.8917 22.8265 25.2285 23.1294 25.5038 23.3814L28.2044 20.4306ZM30.353 22.9228C30.1547 22.5653 29.6633 21.7658 28.2044 20.4306L25.5038 23.3813C26.0994 23.9265 26.4429 24.3114 26.631 24.5459C26.8068 24.7652 26.8542 24.8615 26.8549 24.8629L30.353 22.9228ZM30.3246 22.875C30.3344 22.891 30.3419 22.9036 30.346 22.9108C30.3504 22.9183 30.3535 22.9238 30.3547 22.926C30.3561 22.9284 30.3567 22.9296 30.3562 22.9286C30.3556 22.9276 30.3548 22.9262 30.353 22.9228L26.8549 24.8628C26.8572 24.8669 26.864 24.8792 26.8709 24.8914C26.8766 24.9015 26.8929 24.9304 26.914 24.9648L30.3246 22.875ZM27.9662 24.9581C28.0875 26.9545 28.0883 26.9544 28.0891 26.9544C28.0893 26.9543 28.0901 26.9543 28.0907 26.9543C28.0918 26.9542 28.0929 26.9541 28.094 26.954C28.0963 26.9539 28.0987 26.9537 28.1011 26.9536C28.106 26.9533 28.1113 26.9529 28.117 26.9525C28.1283 26.9516 28.1411 26.9506 28.1553 26.9494C28.1836 26.9469 28.2179 26.9434 28.2571 26.9387C28.3344 26.9294 28.4369 26.9144 28.5551 26.8901C28.7652 26.8467 29.1415 26.7509 29.5269 26.5243C29.9203 26.2932 30.5092 25.808 30.7122 24.9477C30.9119 24.1014 30.625 23.3661 30.3255 22.8763L26.9131 24.9634C26.908 24.9551 26.6867 24.5903 26.8192 24.0289C26.955 23.4536 27.3438 23.1677 27.5003 23.0758C27.5842 23.0265 27.6495 23.0018 27.681 22.9911C27.7146 22.9796 27.7374 22.9745 27.7471 22.9725C27.758 22.9703 27.7681 22.9687 27.7798 22.9673C27.7862 22.9665 27.7944 22.9657 27.8048 22.9647C27.81 22.9643 27.8159 22.9638 27.8226 22.9633C27.8259 22.9631 27.8294 22.9628 27.8331 22.9626C27.835 22.9624 27.8369 22.9623 27.8389 22.9622C27.8399 22.9621 27.8409 22.9621 27.8419 22.962C27.8424 22.962 27.8432 22.9619 27.8434 22.9619C27.8442 22.9619 27.845 22.9618 27.9662 24.9581ZM25.6196 26.9905L27.9937 26.9579L27.9388 22.9583L25.5646 22.9909L25.6196 26.9905ZM23.2889 26.2916C23.8851 26.6954 24.4648 26.8874 24.9546 26.9613C25.1952 26.9977 25.4062 27.0044 25.5787 26.9977C25.6649 26.9944 25.7417 26.9878 25.808 26.9798C25.8412 26.9758 25.8718 26.9714 25.8998 26.967C25.9138 26.9648 25.9271 26.9625 25.9398 26.9603C25.9461 26.9592 25.9522 26.9581 25.9582 26.9569C25.9612 26.9564 25.9642 26.9558 25.9671 26.9553C25.9686 26.955 25.97 26.9547 25.9714 26.9544C25.9722 26.9543 25.9732 26.9541 25.9736 26.954C25.9746 26.9538 25.9757 26.9536 25.5921 24.9907C25.2085 23.0279 25.2096 23.0277 25.2106 23.0275C25.211 23.0274 25.212 23.0272 25.2127 23.027C25.2141 23.0268 25.2155 23.0265 25.2169 23.0262C25.2197 23.0257 25.2225 23.0252 25.2252 23.0247C25.2307 23.0236 25.2361 23.0227 25.2415 23.0217C25.2522 23.0198 25.2626 23.0181 25.2726 23.0165C25.2928 23.0133 25.3118 23.0106 25.3297 23.0085C25.3655 23.0042 25.3972 23.0018 25.4251 23.0007C25.4809 22.9985 25.5224 23.0017 25.5515 23.0061C25.6184 23.0162 25.6073 23.0307 25.532 22.9798L23.2889 26.2916ZM21.891 24.9655C22.1663 25.2766 22.6853 25.8832 23.2896 26.2921L25.5314 22.9793C25.4334 22.913 25.2658 22.7434 24.887 22.3151L21.891 24.9655ZM22.6293 24.5849C22.1991 24.7194 21.8318 24.6413 21.6307 24.565C21.4561 24.4987 21.3762 24.4246 21.4053 24.4484C21.425 24.4645 21.4758 24.5102 21.5693 24.6089C21.6616 24.7064 21.7612 24.8187 21.891 24.9655L24.887 22.3151C24.6726 22.0729 24.3164 21.6617 23.937 21.3515C23.6535 21.1198 22.6899 20.3751 21.4357 20.7671L22.6293 24.5849ZM21.3915 24.289C23.3913 24.2594 23.3913 24.2599 23.3913 24.2604C23.3913 24.2605 23.3913 24.2609 23.3913 24.2612C23.3913 24.2618 23.3913 24.2624 23.3913 24.2629C23.3913 24.264 23.3913 24.265 23.3914 24.2659C23.3914 24.2678 23.3914 24.2693 23.3914 24.2706C23.3914 24.2732 23.3914 24.2746 23.3914 24.275C23.3914 24.2757 23.3914 24.2723 23.3915 24.2655C23.3918 24.2514 23.3926 24.2249 23.3947 24.1901C23.3994 24.1144 23.4088 24.0311 23.4229 23.9626C23.4405 23.8771 23.4462 23.9078 23.3935 24.0008C23.3401 24.0953 23.1203 24.4313 22.6297 24.5848L21.4354 20.7672C20.6138 21.0243 20.1485 21.6137 19.9128 22.0299C19.6779 22.4449 19.5647 22.8658 19.5048 23.1576C19.4413 23.4665 19.4145 23.7476 19.4024 23.942C19.3962 24.0422 19.3934 24.1272 19.3922 24.1908C19.3916 24.2228 19.3914 24.2499 19.3914 24.2713C19.3914 24.282 19.3914 24.2913 19.3915 24.2992C19.3915 24.3032 19.3916 24.3068 19.3916 24.31C19.3916 24.3116 19.3916 24.3131 19.3917 24.3145C19.3917 24.3152 19.3917 24.3159 19.3917 24.3166C19.3917 24.3169 19.3917 24.3174 19.3917 24.3175C19.3917 24.318 19.3917 24.3185 21.3915 24.289ZM22.7004 26.1215C23.1724 25.6211 23.3002 25.0461 23.3415 24.8242C23.3684 24.6791 23.3804 24.5535 23.386 24.4624C23.3889 24.4156 23.3904 24.3744 23.391 24.3403C23.3914 24.3232 23.3915 24.3076 23.3915 24.2937C23.3915 24.2867 23.3915 24.2802 23.3914 24.274C23.3914 24.271 23.3914 24.268 23.3913 24.2651C23.3913 24.2637 23.3913 24.2623 23.3913 24.2609C23.3913 24.2602 23.3913 24.2595 23.3913 24.2588C23.3913 24.2585 23.3913 24.258 23.3912 24.2578C23.3912 24.2573 23.3912 24.2568 21.3915 24.289C19.3917 24.3211 19.3917 24.3206 19.3917 24.3201C19.3917 24.3199 19.3917 24.3194 19.3917 24.3191C19.3917 24.3185 19.3917 24.3178 19.3917 24.3171C19.3917 24.3158 19.3917 24.3145 19.3916 24.3132C19.3916 24.3107 19.3916 24.3081 19.3916 24.3056C19.3915 24.3006 19.3915 24.2958 19.3915 24.2911C19.3915 24.2816 19.3916 24.2726 19.3918 24.264C19.3921 24.247 19.3927 24.2305 19.3937 24.2144C19.3956 24.1846 19.3994 24.1441 19.4086 24.0941C19.4146 24.0622 19.4694 23.7174 19.7906 23.3769L22.7004 26.1215Z" fill="white" mask="url(#path-1-inside-1)"/>
</svg>
