<svg width="24" height="24" viewBox="0 0 24 24" fill="none" xmlns="http://www.w3.org/2000/svg">
<path fill-rule="evenodd" clip-rule="evenodd" d="M12 24C18.6274 24 24 18.6274 24 12C24 5.37258 18.6274 0 12 0C5.37258 0 0 5.37258 0 12C0 18.6274 5.37258 24 12 24ZM12.7473 14.8495C12.649 14.954 12.4564 14.9749 12.4564 14.9749H11.8188C11.8188 14.9749 10.412 15.0584 9.17315 13.7867C7.82209 12.3995 6.62888 9.64701 6.62888 9.64701C6.62888 9.64701 6.5601 9.46654 6.63482 9.3793C6.71881 9.28121 6.9476 9.27493 6.9476 9.27493L8.4717 9.26508C8.4717 9.26508 8.61535 9.28878 8.71816 9.36317C8.80287 9.42456 8.85037 9.53936 8.85037 9.53936C8.85037 9.53936 9.09669 10.1536 9.42294 10.7093C10.0597 11.7941 10.3562 12.0315 10.5724 11.9152C10.8874 11.7457 10.793 10.3816 10.793 10.3816C10.793 10.3816 10.7988 9.88646 10.6344 9.666C10.5071 9.4951 10.267 9.44526 10.161 9.43127C10.0753 9.41999 10.216 9.22367 10.3985 9.13557C10.6728 9.00307 11.1572 8.99551 11.7294 9.00136C12.1753 9.00579 12.3036 9.0332 12.4779 9.07475C12.8824 9.17105 12.8698 9.47963 12.8426 10.1454C12.8345 10.3444 12.825 10.5752 12.825 10.8418C12.825 10.9018 12.8233 10.9657 12.8214 11.0315C12.812 11.3725 12.8012 11.7629 13.0288 11.9079C13.1455 11.9822 13.4311 11.9191 14.1453 10.7233C14.4838 10.1566 14.7377 9.49024 14.7377 9.49024C14.7377 9.49024 14.7931 9.37145 14.8793 9.32047C14.9675 9.2685 15.0864 9.28449 15.0864 9.28449L16.6902 9.27464C16.6902 9.27464 17.1722 9.21796 17.2502 9.43241C17.332 9.65758 17.0701 10.1833 16.4148 11.0444C15.793 11.8616 15.4906 12.1623 15.5185 12.4284C15.5389 12.6227 15.7355 12.7986 16.1125 13.1436C16.9019 13.8661 17.1124 14.2455 17.1624 14.3357C17.1664 14.343 17.1694 14.3484 17.1716 14.3519C17.5249 14.9296 16.7797 14.9749 16.7797 14.9749L15.3553 14.9944C15.3553 14.9944 15.0491 15.0543 14.6463 14.7814C14.4356 14.6388 14.2296 14.406 14.0334 14.1842C13.7334 13.8451 13.4561 13.5316 13.2195 13.6056C12.8224 13.7298 12.8349 14.5734 12.8349 14.5734C12.8349 14.5734 12.8378 14.7536 12.7473 14.8495Z" fill="#2F2F2F"/>
</svg>
